<?xml version="1.0" encoding="UTF-8"?>
<svg version="1.1" baseProfile="tiny" xmlns="http://www.w3.org/2000/svg" width="100" height="100">
<rect shape-rendering="optimizeSpeed"  x="0" y="0" width="100" height="100" fill="white" />
<rect shape-rendering="optimizeSpeed"  x="12" y="12" width="3" height="3" fill="black" />
<rect shape-rendering="optimizeSpeed"  x="15" y="12" width="3" height="3" fill="black" />
<rect shape-rendering="optimizeSpeed"  x="18" y="12" width="3" height="3" fill="black" />
<rect shape-rendering="optimizeSpeed"  x="21" y="12" width="3" height="3" fill="black" />
<rect shape-rendering="optimizeSpeed"  x="24" y="12" width="3" height="3" fill="black" />
<rect shape-rendering="optimizeSpeed"  x="27" y="12" width="3" height="3" fill="black" />
<rect shape-rendering="optimizeSpeed"  x="30" y="12" width="3" height="3" fill="black" />
<rect shape-rendering="optimizeSpeed"  x="36" y="12" width="3" height="3" fill="black" />
<rect shape-rendering="optimizeSpeed"  x="42" y="12" width="3" height="3" fill="black" />
<rect shape-rendering="optimizeSpeed"  x="48" y="12" width="3" height="3" fill="black" />
<rect shape-rendering="optimizeSpeed"  x="51" y="12" width="3" height="3" fill="black" />
<rect shape-rendering="optimizeSpeed"  x="57" y="12" width="3" height="3" fill="black" />
<rect shape-rendering="optimizeSpeed"  x="60" y="12" width="3" height="3" fill="black" />
<rect shape-rendering="optimizeSpeed"  x="66" y="12" width="3" height="3" fill="black" />
<rect shape-rendering="optimizeSpeed"  x="69" y="12" width="3" height="3" fill="black" />
<rect shape-rendering="optimizeSpeed"  x="72" y="12" width="3" height="3" fill="black" />
<rect shape-rendering="optimizeSpeed"  x="75" y="12" width="3" height="3" fill="black" />
<rect shape-rendering="optimizeSpeed"  x="78" y="12" width="3" height="3" fill="black" />
<rect shape-rendering="optimizeSpeed"  x="81" y="12" width="3" height="3" fill="black" />
<rect shape-rendering="optimizeSpeed"  x="84" y="12" width="3" height="3" fill="black" />
<rect shape-rendering="optimizeSpeed"  x="12" y="15" width="3" height="3" fill="black" />
<rect shape-rendering="optimizeSpeed"  x="30" y="15" width="3" height="3" fill="black" />
<rect shape-rendering="optimizeSpeed"  x="39" y="15" width="3" height="3" fill="black" />
<rect shape-rendering="optimizeSpeed"  x="42" y="15" width="3" height="3" fill="black" />
<rect shape-rendering="optimizeSpeed"  x="45" y="15" width="3" height="3" fill="black" />
<rect shape-rendering="optimizeSpeed"  x="48" y="15" width="3" height="3" fill="black" />
<rect shape-rendering="optimizeSpeed"  x="60" y="15" width="3" height="3" fill="black" />
<rect shape-rendering="optimizeSpeed"  x="66" y="15" width="3" height="3" fill="black" />
<rect shape-rendering="optimizeSpeed"  x="84" y="15" width="3" height="3" fill="black" />
<rect shape-rendering="optimizeSpeed"  x="12" y="18" width="3" height="3" fill="black" />
<rect shape-rendering="optimizeSpeed"  x="18" y="18" width="3" height="3" fill="black" />
<rect shape-rendering="optimizeSpeed"  x="21" y="18" width="3" height="3" fill="black" />
<rect shape-rendering="optimizeSpeed"  x="24" y="18" width="3" height="3" fill="black" />
<rect shape-rendering="optimizeSpeed"  x="30" y="18" width="3" height="3" fill="black" />
<rect shape-rendering="optimizeSpeed"  x="36" y="18" width="3" height="3" fill="black" />
<rect shape-rendering="optimizeSpeed"  x="39" y="18" width="3" height="3" fill="black" />
<rect shape-rendering="optimizeSpeed"  x="42" y="18" width="3" height="3" fill="black" />
<rect shape-rendering="optimizeSpeed"  x="51" y="18" width="3" height="3" fill="black" />
<rect shape-rendering="optimizeSpeed"  x="54" y="18" width="3" height="3" fill="black" />
<rect shape-rendering="optimizeSpeed"  x="57" y="18" width="3" height="3" fill="black" />
<rect shape-rendering="optimizeSpeed"  x="60" y="18" width="3" height="3" fill="black" />
<rect shape-rendering="optimizeSpeed"  x="66" y="18" width="3" height="3" fill="black" />
<rect shape-rendering="optimizeSpeed"  x="72" y="18" width="3" height="3" fill="black" />
<rect shape-rendering="optimizeSpeed"  x="75" y="18" width="3" height="3" fill="black" />
<rect shape-rendering="optimizeSpeed"  x="78" y="18" width="3" height="3" fill="black" />
<rect shape-rendering="optimizeSpeed"  x="84" y="18" width="3" height="3" fill="black" />
<rect shape-rendering="optimizeSpeed"  x="12" y="21" width="3" height="3" fill="black" />
<rect shape-rendering="optimizeSpeed"  x="18" y="21" width="3" height="3" fill="black" />
<rect shape-rendering="optimizeSpeed"  x="21" y="21" width="3" height="3" fill="black" />
<rect shape-rendering="optimizeSpeed"  x="24" y="21" width="3" height="3" fill="black" />
<rect shape-rendering="optimizeSpeed"  x="30" y="21" width="3" height="3" fill="black" />
<rect shape-rendering="optimizeSpeed"  x="36" y="21" width="3" height="3" fill="black" />
<rect shape-rendering="optimizeSpeed"  x="39" y="21" width="3" height="3" fill="black" />
<rect shape-rendering="optimizeSpeed"  x="42" y="21" width="3" height="3" fill="black" />
<rect shape-rendering="optimizeSpeed"  x="48" y="21" width="3" height="3" fill="black" />
<rect shape-rendering="optimizeSpeed"  x="51" y="21" width="3" height="3" fill="black" />
<rect shape-rendering="optimizeSpeed"  x="57" y="21" width="3" height="3" fill="black" />
<rect shape-rendering="optimizeSpeed"  x="66" y="21" width="3" height="3" fill="black" />
<rect shape-rendering="optimizeSpeed"  x="72" y="21" width="3" height="3" fill="black" />
<rect shape-rendering="optimizeSpeed"  x="75" y="21" width="3" height="3" fill="black" />
<rect shape-rendering="optimizeSpeed"  x="78" y="21" width="3" height="3" fill="black" />
<rect shape-rendering="optimizeSpeed"  x="84" y="21" width="3" height="3" fill="black" />
<rect shape-rendering="optimizeSpeed"  x="12" y="24" width="3" height="3" fill="black" />
<rect shape-rendering="optimizeSpeed"  x="18" y="24" width="3" height="3" fill="black" />
<rect shape-rendering="optimizeSpeed"  x="21" y="24" width="3" height="3" fill="black" />
<rect shape-rendering="optimizeSpeed"  x="24" y="24" width="3" height="3" fill="black" />
<rect shape-rendering="optimizeSpeed"  x="30" y="24" width="3" height="3" fill="black" />
<rect shape-rendering="optimizeSpeed"  x="36" y="24" width="3" height="3" fill="black" />
<rect shape-rendering="optimizeSpeed"  x="45" y="24" width="3" height="3" fill="black" />
<rect shape-rendering="optimizeSpeed"  x="48" y="24" width="3" height="3" fill="black" />
<rect shape-rendering="optimizeSpeed"  x="57" y="24" width="3" height="3" fill="black" />
<rect shape-rendering="optimizeSpeed"  x="60" y="24" width="3" height="3" fill="black" />
<rect shape-rendering="optimizeSpeed"  x="66" y="24" width="3" height="3" fill="black" />
<rect shape-rendering="optimizeSpeed"  x="72" y="24" width="3" height="3" fill="black" />
<rect shape-rendering="optimizeSpeed"  x="75" y="24" width="3" height="3" fill="black" />
<rect shape-rendering="optimizeSpeed"  x="78" y="24" width="3" height="3" fill="black" />
<rect shape-rendering="optimizeSpeed"  x="84" y="24" width="3" height="3" fill="black" />
<rect shape-rendering="optimizeSpeed"  x="12" y="27" width="3" height="3" fill="black" />
<rect shape-rendering="optimizeSpeed"  x="30" y="27" width="3" height="3" fill="black" />
<rect shape-rendering="optimizeSpeed"  x="42" y="27" width="3" height="3" fill="black" />
<rect shape-rendering="optimizeSpeed"  x="45" y="27" width="3" height="3" fill="black" />
<rect shape-rendering="optimizeSpeed"  x="54" y="27" width="3" height="3" fill="black" />
<rect shape-rendering="optimizeSpeed"  x="60" y="27" width="3" height="3" fill="black" />
<rect shape-rendering="optimizeSpeed"  x="66" y="27" width="3" height="3" fill="black" />
<rect shape-rendering="optimizeSpeed"  x="84" y="27" width="3" height="3" fill="black" />
<rect shape-rendering="optimizeSpeed"  x="12" y="30" width="3" height="3" fill="black" />
<rect shape-rendering="optimizeSpeed"  x="15" y="30" width="3" height="3" fill="black" />
<rect shape-rendering="optimizeSpeed"  x="18" y="30" width="3" height="3" fill="black" />
<rect shape-rendering="optimizeSpeed"  x="21" y="30" width="3" height="3" fill="black" />
<rect shape-rendering="optimizeSpeed"  x="24" y="30" width="3" height="3" fill="black" />
<rect shape-rendering="optimizeSpeed"  x="27" y="30" width="3" height="3" fill="black" />
<rect shape-rendering="optimizeSpeed"  x="30" y="30" width="3" height="3" fill="black" />
<rect shape-rendering="optimizeSpeed"  x="36" y="30" width="3" height="3" fill="black" />
<rect shape-rendering="optimizeSpeed"  x="42" y="30" width="3" height="3" fill="black" />
<rect shape-rendering="optimizeSpeed"  x="48" y="30" width="3" height="3" fill="black" />
<rect shape-rendering="optimizeSpeed"  x="54" y="30" width="3" height="3" fill="black" />
<rect shape-rendering="optimizeSpeed"  x="60" y="30" width="3" height="3" fill="black" />
<rect shape-rendering="optimizeSpeed"  x="66" y="30" width="3" height="3" fill="black" />
<rect shape-rendering="optimizeSpeed"  x="69" y="30" width="3" height="3" fill="black" />
<rect shape-rendering="optimizeSpeed"  x="72" y="30" width="3" height="3" fill="black" />
<rect shape-rendering="optimizeSpeed"  x="75" y="30" width="3" height="3" fill="black" />
<rect shape-rendering="optimizeSpeed"  x="78" y="30" width="3" height="3" fill="black" />
<rect shape-rendering="optimizeSpeed"  x="81" y="30" width="3" height="3" fill="black" />
<rect shape-rendering="optimizeSpeed"  x="84" y="30" width="3" height="3" fill="black" />
<rect shape-rendering="optimizeSpeed"  x="42" y="33" width="3" height="3" fill="black" />
<rect shape-rendering="optimizeSpeed"  x="48" y="33" width="3" height="3" fill="black" />
<rect shape-rendering="optimizeSpeed"  x="57" y="33" width="3" height="3" fill="black" />
<rect shape-rendering="optimizeSpeed"  x="60" y="33" width="3" height="3" fill="black" />
<rect shape-rendering="optimizeSpeed"  x="12" y="36" width="3" height="3" fill="black" />
<rect shape-rendering="optimizeSpeed"  x="15" y="36" width="3" height="3" fill="black" />
<rect shape-rendering="optimizeSpeed"  x="18" y="36" width="3" height="3" fill="black" />
<rect shape-rendering="optimizeSpeed"  x="21" y="36" width="3" height="3" fill="black" />
<rect shape-rendering="optimizeSpeed"  x="30" y="36" width="3" height="3" fill="black" />
<rect shape-rendering="optimizeSpeed"  x="36" y="36" width="3" height="3" fill="black" />
<rect shape-rendering="optimizeSpeed"  x="42" y="36" width="3" height="3" fill="black" />
<rect shape-rendering="optimizeSpeed"  x="45" y="36" width="3" height="3" fill="black" />
<rect shape-rendering="optimizeSpeed"  x="48" y="36" width="3" height="3" fill="black" />
<rect shape-rendering="optimizeSpeed"  x="51" y="36" width="3" height="3" fill="black" />
<rect shape-rendering="optimizeSpeed"  x="54" y="36" width="3" height="3" fill="black" />
<rect shape-rendering="optimizeSpeed"  x="60" y="36" width="3" height="3" fill="black" />
<rect shape-rendering="optimizeSpeed"  x="63" y="36" width="3" height="3" fill="black" />
<rect shape-rendering="optimizeSpeed"  x="72" y="36" width="3" height="3" fill="black" />
<rect shape-rendering="optimizeSpeed"  x="75" y="36" width="3" height="3" fill="black" />
<rect shape-rendering="optimizeSpeed"  x="78" y="36" width="3" height="3" fill="black" />
<rect shape-rendering="optimizeSpeed"  x="84" y="36" width="3" height="3" fill="black" />
<rect shape-rendering="optimizeSpeed"  x="12" y="39" width="3" height="3" fill="black" />
<rect shape-rendering="optimizeSpeed"  x="21" y="39" width="3" height="3" fill="black" />
<rect shape-rendering="optimizeSpeed"  x="33" y="39" width="3" height="3" fill="black" />
<rect shape-rendering="optimizeSpeed"  x="42" y="39" width="3" height="3" fill="black" />
<rect shape-rendering="optimizeSpeed"  x="48" y="39" width="3" height="3" fill="black" />
<rect shape-rendering="optimizeSpeed"  x="51" y="39" width="3" height="3" fill="black" />
<rect shape-rendering="optimizeSpeed"  x="60" y="39" width="3" height="3" fill="black" />
<rect shape-rendering="optimizeSpeed"  x="69" y="39" width="3" height="3" fill="black" />
<rect shape-rendering="optimizeSpeed"  x="81" y="39" width="3" height="3" fill="black" />
<rect shape-rendering="optimizeSpeed"  x="15" y="42" width="3" height="3" fill="black" />
<rect shape-rendering="optimizeSpeed"  x="18" y="42" width="3" height="3" fill="black" />
<rect shape-rendering="optimizeSpeed"  x="27" y="42" width="3" height="3" fill="black" />
<rect shape-rendering="optimizeSpeed"  x="30" y="42" width="3" height="3" fill="black" />
<rect shape-rendering="optimizeSpeed"  x="33" y="42" width="3" height="3" fill="black" />
<rect shape-rendering="optimizeSpeed"  x="39" y="42" width="3" height="3" fill="black" />
<rect shape-rendering="optimizeSpeed"  x="42" y="42" width="3" height="3" fill="black" />
<rect shape-rendering="optimizeSpeed"  x="45" y="42" width="3" height="3" fill="black" />
<rect shape-rendering="optimizeSpeed"  x="48" y="42" width="3" height="3" fill="black" />
<rect shape-rendering="optimizeSpeed"  x="51" y="42" width="3" height="3" fill="black" />
<rect shape-rendering="optimizeSpeed"  x="54" y="42" width="3" height="3" fill="black" />
<rect shape-rendering="optimizeSpeed"  x="60" y="42" width="3" height="3" fill="black" />
<rect shape-rendering="optimizeSpeed"  x="66" y="42" width="3" height="3" fill="black" />
<rect shape-rendering="optimizeSpeed"  x="69" y="42" width="3" height="3" fill="black" />
<rect shape-rendering="optimizeSpeed"  x="24" y="45" width="3" height="3" fill="black" />
<rect shape-rendering="optimizeSpeed"  x="27" y="45" width="3" height="3" fill="black" />
<rect shape-rendering="optimizeSpeed"  x="33" y="45" width="3" height="3" fill="black" />
<rect shape-rendering="optimizeSpeed"  x="39" y="45" width="3" height="3" fill="black" />
<rect shape-rendering="optimizeSpeed"  x="42" y="45" width="3" height="3" fill="black" />
<rect shape-rendering="optimizeSpeed"  x="51" y="45" width="3" height="3" fill="black" />
<rect shape-rendering="optimizeSpeed"  x="57" y="45" width="3" height="3" fill="black" />
<rect shape-rendering="optimizeSpeed"  x="63" y="45" width="3" height="3" fill="black" />
<rect shape-rendering="optimizeSpeed"  x="66" y="45" width="3" height="3" fill="black" />
<rect shape-rendering="optimizeSpeed"  x="75" y="45" width="3" height="3" fill="black" />
<rect shape-rendering="optimizeSpeed"  x="78" y="45" width="3" height="3" fill="black" />
<rect shape-rendering="optimizeSpeed"  x="15" y="48" width="3" height="3" fill="black" />
<rect shape-rendering="optimizeSpeed"  x="21" y="48" width="3" height="3" fill="black" />
<rect shape-rendering="optimizeSpeed"  x="24" y="48" width="3" height="3" fill="black" />
<rect shape-rendering="optimizeSpeed"  x="30" y="48" width="3" height="3" fill="black" />
<rect shape-rendering="optimizeSpeed"  x="33" y="48" width="3" height="3" fill="black" />
<rect shape-rendering="optimizeSpeed"  x="39" y="48" width="3" height="3" fill="black" />
<rect shape-rendering="optimizeSpeed"  x="42" y="48" width="3" height="3" fill="black" />
<rect shape-rendering="optimizeSpeed"  x="48" y="48" width="3" height="3" fill="black" />
<rect shape-rendering="optimizeSpeed"  x="54" y="48" width="3" height="3" fill="black" />
<rect shape-rendering="optimizeSpeed"  x="63" y="48" width="3" height="3" fill="black" />
<rect shape-rendering="optimizeSpeed"  x="66" y="48" width="3" height="3" fill="black" />
<rect shape-rendering="optimizeSpeed"  x="72" y="48" width="3" height="3" fill="black" />
<rect shape-rendering="optimizeSpeed"  x="78" y="48" width="3" height="3" fill="black" />
<rect shape-rendering="optimizeSpeed"  x="81" y="48" width="3" height="3" fill="black" />
<rect shape-rendering="optimizeSpeed"  x="84" y="48" width="3" height="3" fill="black" />
<rect shape-rendering="optimizeSpeed"  x="18" y="51" width="3" height="3" fill="black" />
<rect shape-rendering="optimizeSpeed"  x="21" y="51" width="3" height="3" fill="black" />
<rect shape-rendering="optimizeSpeed"  x="24" y="51" width="3" height="3" fill="black" />
<rect shape-rendering="optimizeSpeed"  x="27" y="51" width="3" height="3" fill="black" />
<rect shape-rendering="optimizeSpeed"  x="33" y="51" width="3" height="3" fill="black" />
<rect shape-rendering="optimizeSpeed"  x="36" y="51" width="3" height="3" fill="black" />
<rect shape-rendering="optimizeSpeed"  x="39" y="51" width="3" height="3" fill="black" />
<rect shape-rendering="optimizeSpeed"  x="45" y="51" width="3" height="3" fill="black" />
<rect shape-rendering="optimizeSpeed"  x="48" y="51" width="3" height="3" fill="black" />
<rect shape-rendering="optimizeSpeed"  x="54" y="51" width="3" height="3" fill="black" />
<rect shape-rendering="optimizeSpeed"  x="57" y="51" width="3" height="3" fill="black" />
<rect shape-rendering="optimizeSpeed"  x="63" y="51" width="3" height="3" fill="black" />
<rect shape-rendering="optimizeSpeed"  x="66" y="51" width="3" height="3" fill="black" />
<rect shape-rendering="optimizeSpeed"  x="69" y="51" width="3" height="3" fill="black" />
<rect shape-rendering="optimizeSpeed"  x="72" y="51" width="3" height="3" fill="black" />
<rect shape-rendering="optimizeSpeed"  x="84" y="51" width="3" height="3" fill="black" />
<rect shape-rendering="optimizeSpeed"  x="15" y="54" width="3" height="3" fill="black" />
<rect shape-rendering="optimizeSpeed"  x="18" y="54" width="3" height="3" fill="black" />
<rect shape-rendering="optimizeSpeed"  x="27" y="54" width="3" height="3" fill="black" />
<rect shape-rendering="optimizeSpeed"  x="30" y="54" width="3" height="3" fill="black" />
<rect shape-rendering="optimizeSpeed"  x="33" y="54" width="3" height="3" fill="black" />
<rect shape-rendering="optimizeSpeed"  x="36" y="54" width="3" height="3" fill="black" />
<rect shape-rendering="optimizeSpeed"  x="45" y="54" width="3" height="3" fill="black" />
<rect shape-rendering="optimizeSpeed"  x="60" y="54" width="3" height="3" fill="black" />
<rect shape-rendering="optimizeSpeed"  x="63" y="54" width="3" height="3" fill="black" />
<rect shape-rendering="optimizeSpeed"  x="66" y="54" width="3" height="3" fill="black" />
<rect shape-rendering="optimizeSpeed"  x="72" y="54" width="3" height="3" fill="black" />
<rect shape-rendering="optimizeSpeed"  x="78" y="54" width="3" height="3" fill="black" />
<rect shape-rendering="optimizeSpeed"  x="81" y="54" width="3" height="3" fill="black" />
<rect shape-rendering="optimizeSpeed"  x="12" y="57" width="3" height="3" fill="black" />
<rect shape-rendering="optimizeSpeed"  x="18" y="57" width="3" height="3" fill="black" />
<rect shape-rendering="optimizeSpeed"  x="27" y="57" width="3" height="3" fill="black" />
<rect shape-rendering="optimizeSpeed"  x="39" y="57" width="3" height="3" fill="black" />
<rect shape-rendering="optimizeSpeed"  x="42" y="57" width="3" height="3" fill="black" />
<rect shape-rendering="optimizeSpeed"  x="45" y="57" width="3" height="3" fill="black" />
<rect shape-rendering="optimizeSpeed"  x="54" y="57" width="3" height="3" fill="black" />
<rect shape-rendering="optimizeSpeed"  x="57" y="57" width="3" height="3" fill="black" />
<rect shape-rendering="optimizeSpeed"  x="60" y="57" width="3" height="3" fill="black" />
<rect shape-rendering="optimizeSpeed"  x="63" y="57" width="3" height="3" fill="black" />
<rect shape-rendering="optimizeSpeed"  x="69" y="57" width="3" height="3" fill="black" />
<rect shape-rendering="optimizeSpeed"  x="72" y="57" width="3" height="3" fill="black" />
<rect shape-rendering="optimizeSpeed"  x="84" y="57" width="3" height="3" fill="black" />
<rect shape-rendering="optimizeSpeed"  x="21" y="60" width="3" height="3" fill="black" />
<rect shape-rendering="optimizeSpeed"  x="27" y="60" width="3" height="3" fill="black" />
<rect shape-rendering="optimizeSpeed"  x="30" y="60" width="3" height="3" fill="black" />
<rect shape-rendering="optimizeSpeed"  x="33" y="60" width="3" height="3" fill="black" />
<rect shape-rendering="optimizeSpeed"  x="36" y="60" width="3" height="3" fill="black" />
<rect shape-rendering="optimizeSpeed"  x="39" y="60" width="3" height="3" fill="black" />
<rect shape-rendering="optimizeSpeed"  x="42" y="60" width="3" height="3" fill="black" />
<rect shape-rendering="optimizeSpeed"  x="48" y="60" width="3" height="3" fill="black" />
<rect shape-rendering="optimizeSpeed"  x="54" y="60" width="3" height="3" fill="black" />
<rect shape-rendering="optimizeSpeed"  x="57" y="60" width="3" height="3" fill="black" />
<rect shape-rendering="optimizeSpeed"  x="60" y="60" width="3" height="3" fill="black" />
<rect shape-rendering="optimizeSpeed"  x="63" y="60" width="3" height="3" fill="black" />
<rect shape-rendering="optimizeSpeed"  x="66" y="60" width="3" height="3" fill="black" />
<rect shape-rendering="optimizeSpeed"  x="69" y="60" width="3" height="3" fill="black" />
<rect shape-rendering="optimizeSpeed"  x="72" y="60" width="3" height="3" fill="black" />
<rect shape-rendering="optimizeSpeed"  x="75" y="60" width="3" height="3" fill="black" />
<rect shape-rendering="optimizeSpeed"  x="78" y="60" width="3" height="3" fill="black" />
<rect shape-rendering="optimizeSpeed"  x="81" y="60" width="3" height="3" fill="black" />
<rect shape-rendering="optimizeSpeed"  x="84" y="60" width="3" height="3" fill="black" />
<rect shape-rendering="optimizeSpeed"  x="36" y="63" width="3" height="3" fill="black" />
<rect shape-rendering="optimizeSpeed"  x="60" y="63" width="3" height="3" fill="black" />
<rect shape-rendering="optimizeSpeed"  x="72" y="63" width="3" height="3" fill="black" />
<rect shape-rendering="optimizeSpeed"  x="78" y="63" width="3" height="3" fill="black" />
<rect shape-rendering="optimizeSpeed"  x="84" y="63" width="3" height="3" fill="black" />
<rect shape-rendering="optimizeSpeed"  x="12" y="66" width="3" height="3" fill="black" />
<rect shape-rendering="optimizeSpeed"  x="15" y="66" width="3" height="3" fill="black" />
<rect shape-rendering="optimizeSpeed"  x="18" y="66" width="3" height="3" fill="black" />
<rect shape-rendering="optimizeSpeed"  x="21" y="66" width="3" height="3" fill="black" />
<rect shape-rendering="optimizeSpeed"  x="24" y="66" width="3" height="3" fill="black" />
<rect shape-rendering="optimizeSpeed"  x="27" y="66" width="3" height="3" fill="black" />
<rect shape-rendering="optimizeSpeed"  x="30" y="66" width="3" height="3" fill="black" />
<rect shape-rendering="optimizeSpeed"  x="39" y="66" width="3" height="3" fill="black" />
<rect shape-rendering="optimizeSpeed"  x="51" y="66" width="3" height="3" fill="black" />
<rect shape-rendering="optimizeSpeed"  x="54" y="66" width="3" height="3" fill="black" />
<rect shape-rendering="optimizeSpeed"  x="60" y="66" width="3" height="3" fill="black" />
<rect shape-rendering="optimizeSpeed"  x="66" y="66" width="3" height="3" fill="black" />
<rect shape-rendering="optimizeSpeed"  x="72" y="66" width="3" height="3" fill="black" />
<rect shape-rendering="optimizeSpeed"  x="78" y="66" width="3" height="3" fill="black" />
<rect shape-rendering="optimizeSpeed"  x="81" y="66" width="3" height="3" fill="black" />
<rect shape-rendering="optimizeSpeed"  x="84" y="66" width="3" height="3" fill="black" />
<rect shape-rendering="optimizeSpeed"  x="12" y="69" width="3" height="3" fill="black" />
<rect shape-rendering="optimizeSpeed"  x="30" y="69" width="3" height="3" fill="black" />
<rect shape-rendering="optimizeSpeed"  x="39" y="69" width="3" height="3" fill="black" />
<rect shape-rendering="optimizeSpeed"  x="42" y="69" width="3" height="3" fill="black" />
<rect shape-rendering="optimizeSpeed"  x="45" y="69" width="3" height="3" fill="black" />
<rect shape-rendering="optimizeSpeed"  x="51" y="69" width="3" height="3" fill="black" />
<rect shape-rendering="optimizeSpeed"  x="54" y="69" width="3" height="3" fill="black" />
<rect shape-rendering="optimizeSpeed"  x="57" y="69" width="3" height="3" fill="black" />
<rect shape-rendering="optimizeSpeed"  x="60" y="69" width="3" height="3" fill="black" />
<rect shape-rendering="optimizeSpeed"  x="72" y="69" width="3" height="3" fill="black" />
<rect shape-rendering="optimizeSpeed"  x="12" y="72" width="3" height="3" fill="black" />
<rect shape-rendering="optimizeSpeed"  x="18" y="72" width="3" height="3" fill="black" />
<rect shape-rendering="optimizeSpeed"  x="21" y="72" width="3" height="3" fill="black" />
<rect shape-rendering="optimizeSpeed"  x="24" y="72" width="3" height="3" fill="black" />
<rect shape-rendering="optimizeSpeed"  x="30" y="72" width="3" height="3" fill="black" />
<rect shape-rendering="optimizeSpeed"  x="39" y="72" width="3" height="3" fill="black" />
<rect shape-rendering="optimizeSpeed"  x="51" y="72" width="3" height="3" fill="black" />
<rect shape-rendering="optimizeSpeed"  x="54" y="72" width="3" height="3" fill="black" />
<rect shape-rendering="optimizeSpeed"  x="60" y="72" width="3" height="3" fill="black" />
<rect shape-rendering="optimizeSpeed"  x="63" y="72" width="3" height="3" fill="black" />
<rect shape-rendering="optimizeSpeed"  x="66" y="72" width="3" height="3" fill="black" />
<rect shape-rendering="optimizeSpeed"  x="69" y="72" width="3" height="3" fill="black" />
<rect shape-rendering="optimizeSpeed"  x="72" y="72" width="3" height="3" fill="black" />
<rect shape-rendering="optimizeSpeed"  x="75" y="72" width="3" height="3" fill="black" />
<rect shape-rendering="optimizeSpeed"  x="81" y="72" width="3" height="3" fill="black" />
<rect shape-rendering="optimizeSpeed"  x="12" y="75" width="3" height="3" fill="black" />
<rect shape-rendering="optimizeSpeed"  x="18" y="75" width="3" height="3" fill="black" />
<rect shape-rendering="optimizeSpeed"  x="21" y="75" width="3" height="3" fill="black" />
<rect shape-rendering="optimizeSpeed"  x="24" y="75" width="3" height="3" fill="black" />
<rect shape-rendering="optimizeSpeed"  x="30" y="75" width="3" height="3" fill="black" />
<rect shape-rendering="optimizeSpeed"  x="36" y="75" width="3" height="3" fill="black" />
<rect shape-rendering="optimizeSpeed"  x="39" y="75" width="3" height="3" fill="black" />
<rect shape-rendering="optimizeSpeed"  x="60" y="75" width="3" height="3" fill="black" />
<rect shape-rendering="optimizeSpeed"  x="66" y="75" width="3" height="3" fill="black" />
<rect shape-rendering="optimizeSpeed"  x="72" y="75" width="3" height="3" fill="black" />
<rect shape-rendering="optimizeSpeed"  x="75" y="75" width="3" height="3" fill="black" />
<rect shape-rendering="optimizeSpeed"  x="78" y="75" width="3" height="3" fill="black" />
<rect shape-rendering="optimizeSpeed"  x="81" y="75" width="3" height="3" fill="black" />
<rect shape-rendering="optimizeSpeed"  x="84" y="75" width="3" height="3" fill="black" />
<rect shape-rendering="optimizeSpeed"  x="12" y="78" width="3" height="3" fill="black" />
<rect shape-rendering="optimizeSpeed"  x="18" y="78" width="3" height="3" fill="black" />
<rect shape-rendering="optimizeSpeed"  x="21" y="78" width="3" height="3" fill="black" />
<rect shape-rendering="optimizeSpeed"  x="24" y="78" width="3" height="3" fill="black" />
<rect shape-rendering="optimizeSpeed"  x="30" y="78" width="3" height="3" fill="black" />
<rect shape-rendering="optimizeSpeed"  x="36" y="78" width="3" height="3" fill="black" />
<rect shape-rendering="optimizeSpeed"  x="39" y="78" width="3" height="3" fill="black" />
<rect shape-rendering="optimizeSpeed"  x="54" y="78" width="3" height="3" fill="black" />
<rect shape-rendering="optimizeSpeed"  x="57" y="78" width="3" height="3" fill="black" />
<rect shape-rendering="optimizeSpeed"  x="63" y="78" width="3" height="3" fill="black" />
<rect shape-rendering="optimizeSpeed"  x="66" y="78" width="3" height="3" fill="black" />
<rect shape-rendering="optimizeSpeed"  x="72" y="78" width="3" height="3" fill="black" />
<rect shape-rendering="optimizeSpeed"  x="78" y="78" width="3" height="3" fill="black" />
<rect shape-rendering="optimizeSpeed"  x="81" y="78" width="3" height="3" fill="black" />
<rect shape-rendering="optimizeSpeed"  x="12" y="81" width="3" height="3" fill="black" />
<rect shape-rendering="optimizeSpeed"  x="30" y="81" width="3" height="3" fill="black" />
<rect shape-rendering="optimizeSpeed"  x="36" y="81" width="3" height="3" fill="black" />
<rect shape-rendering="optimizeSpeed"  x="39" y="81" width="3" height="3" fill="black" />
<rect shape-rendering="optimizeSpeed"  x="45" y="81" width="3" height="3" fill="black" />
<rect shape-rendering="optimizeSpeed"  x="48" y="81" width="3" height="3" fill="black" />
<rect shape-rendering="optimizeSpeed"  x="51" y="81" width="3" height="3" fill="black" />
<rect shape-rendering="optimizeSpeed"  x="54" y="81" width="3" height="3" fill="black" />
<rect shape-rendering="optimizeSpeed"  x="63" y="81" width="3" height="3" fill="black" />
<rect shape-rendering="optimizeSpeed"  x="66" y="81" width="3" height="3" fill="black" />
<rect shape-rendering="optimizeSpeed"  x="72" y="81" width="3" height="3" fill="black" />
<rect shape-rendering="optimizeSpeed"  x="78" y="81" width="3" height="3" fill="black" />
<rect shape-rendering="optimizeSpeed"  x="12" y="84" width="3" height="3" fill="black" />
<rect shape-rendering="optimizeSpeed"  x="15" y="84" width="3" height="3" fill="black" />
<rect shape-rendering="optimizeSpeed"  x="18" y="84" width="3" height="3" fill="black" />
<rect shape-rendering="optimizeSpeed"  x="21" y="84" width="3" height="3" fill="black" />
<rect shape-rendering="optimizeSpeed"  x="24" y="84" width="3" height="3" fill="black" />
<rect shape-rendering="optimizeSpeed"  x="27" y="84" width="3" height="3" fill="black" />
<rect shape-rendering="optimizeSpeed"  x="30" y="84" width="3" height="3" fill="black" />
<rect shape-rendering="optimizeSpeed"  x="36" y="84" width="3" height="3" fill="black" />
<rect shape-rendering="optimizeSpeed"  x="39" y="84" width="3" height="3" fill="black" />
<rect shape-rendering="optimizeSpeed"  x="42" y="84" width="3" height="3" fill="black" />
<rect shape-rendering="optimizeSpeed"  x="45" y="84" width="3" height="3" fill="black" />
<rect shape-rendering="optimizeSpeed"  x="69" y="84" width="3" height="3" fill="black" />
<rect shape-rendering="optimizeSpeed"  x="72" y="84" width="3" height="3" fill="black" />
<rect shape-rendering="optimizeSpeed"  x="75" y="84" width="3" height="3" fill="black" />
<rect shape-rendering="optimizeSpeed"  x="78" y="84" width="3" height="3" fill="black" />
<rect shape-rendering="optimizeSpeed"  x="81" y="84" width="3" height="3" fill="black" />
<rect shape-rendering="optimizeSpeed"  x="84" y="84" width="3" height="3" fill="black" /></svg>